# AST/ASF file generated using VICON BodyLanguage
# -----------------------------------------------
:version 1.10
:name VICON
:units
  mass 1.0
  length 0.45
  angle deg
:documentation
   .ast/.asf automatically generated from VICON data using
   VICON BodyBuilder and BodyLanguage model FoxedUp or BRILLIANT.MOD
:root
   order TX TY TZ RX RY RZ
   axis XYZ
   position 0 0 0  
   orientation 0 0 0 
:bonedata
  begin
     id 1 
     name lhipjoint
     direction 0.700308 -0.549349 0.455834 
     length 2.59063 
     axis 0 0 0  XYZ
  end
  begin
     id 2 
     name lfemur
     direction 0.34202 -0.939693 0  
     length 6.31066  
     axis 0 0 20  XYZ
    dof rx ry rz
    limits (-160.0 20.0)
           (-70.0 70.0)
           (-60.0 70.0)
  end
  begin
     id 3 
     name ltibia
     direction 0.34202 -0.939693 0   
     length 7.36093   
     axis 0 0 20   XYZ
    dof rx
    limits (-10.0 170.0)
  end
  begin
     id 4 
     name lfoot
     direction 0.0905332 -0.248738 0.96433   
     length 2.0233   
     axis -90 7.62852e-016 20   XYZ
    dof rx rz
    limits (-45.0 90.0)
           (-70.0 20.0)
  end
  begin
     id 5 
     name ltoes
     direction 1.53573e-011 -4.21855e-011 1   
     length 1.01524   
     axis -90 7.62852e-016 20   XYZ
    dof rx
    limits (-90.0 20.0)
  end
  begin
     id 6 
     name rhipjoint
     direction -0.61416 -0.607328 0.503944   
     length 2.34332  
     axis 0 0 0  XYZ 
  end
  begin
     id 7 
     name rfemur
     direction -0.34202 -0.939693 0   
     length 6.58548   
     axis 0 0 -20   XYZ
    dof rx ry rz
    limits (-160.0 20.0)
           (-70.0 70.0)
           (-70.0 60.0)
  end
  begin
     id 8 
     name rtibia
     direction -0.34202 -0.939693 0   
     length 7.20707   
     axis 0 0 -20   XYZ
    dof rx
    limits (-10.0 170.0)
 end
 begin
     id 9 
     name rfoot
     direction -0.136772 -0.375778 0.916561   
     length 1.92184  
     axis -90 -7.62852e-016 -20   XYZ
    dof rx rz
    limits (-45.0 90.0)
           (-20.0 70.0)
  end
  begin
     id 10 
     name rtoes
     direction -1.53535e-011 -4.21828e-011 1   
     length 0.951089   
     axis -90 -7.62852e-016 -20   XYZ
    dof rx
    limits (-90.0 20.0)
  end
  begin
     id 11 
     name lowerback
     direction -0.0444974 0.988086 -0.147332   
     length 1.9609   
     axis 0 0 0   XYZ
    dof rx ry rz
    limits (-20.0 45.0)
           (-30.0 30.0)
           (-30.0 30.0)
  end
  begin
     id 12 
     name upperback
     direction 0.00613146 0.999513 0.0306081   
     length 1.94944   
     axis 0 0 0   XYZ
    dof rx ry rz
    limits (-20.0 45.0)
           (-30.0 30.0)
           (-30.0 30.0)
  end
  begin
     id 13 
     name thorax
     direction 0.0254621 0.994518 0.101418   
     length 2.0119   
     axis 0 0 0   XYZ
    dof rx ry rz
    limits (-20.0 45.0)
           (-30.0 30.0)
           (-30.0 30.0)
  end
  begin
     id 14 
     name lowerneck
     direction 0.0168698 0.977854 0.208608   
     length 1.6375   
     axis 0 0 0   XYZ
    dof rx ry rz
    limits (-20.0 45.0)
           (-30.0 30.0)
           (-30.0 30.0)
  end
  begin
     id 15 
     name upperneck
     direction -0.0283988 0.989338 -0.142843   
     length 1.6851   
     axis 0 0 0   XYZ
    dof rx ry rz
    limits (-20.0 45.0)
           (-30.0 30.0)
           (-30.0 30.0)
  end
  begin
     id 16
     name head
     direction -0.0129422 0.99741 -0.0707489  
     length 1.69029  
     axis 0 0 0   XYZ
    dof rx ry rz
    limits (-20.0 45.0)
           (-30.0 30.0)
           (-30.0 30.0)
  end
  begin
     id 17 
     name lclavicle
     direction 0.820295 0.564628 -0.0911715  
     length 3.16484  
     axis 0 0 0   XYZ
    dof ry rz
    limits (-20.0 10.0)
           (0.0 20.0)
  end
  begin
     id 18 
     name lhumerus
     direction 1 -4.48969e-011 1.00186e-027   
     length 5.17853   
     axis 180 -30 -90   XYZ
    dof rx ry rz
    limits (-60.0 90.0)
           (-90.0 90.0)
           (-90.0 90.0)
  end
  begin
     id 19
     name lradius
     direction 1 -4.48966e-011 -1.52922e-027   
     length 3.40399   
     axis 180 -30 -90   XYZ
    dof rx
    limits (-10.0 170.0)
  end
  begin
     id 20
     name lwrist
     direction 1 -4.48981e-011 -3.80893e-027   
     length 1.70199   
     axis 1.1049e-015 90 90   XYZ
    dof ry
    limits (-180.0 0.0)
 end
  begin
     id 21 
     name lhand
     direction 1 -4.48957e-011 -7.61786e-027   
     length 0.708964   
     axis 4.86085e-015 90 90   XYZ
    dof rx rz
    limits (-90.0 90.0)
           (-45.0 45.0)
  end
  begin
     id 22 
     name lfingers
     direction 1 -4.48929e-011 -1.52357e-026   
     length 0.571585   
     axis 9.7217e-015 90 90   XYZ
    dof rx
    limits (0.0 90.0)
  end
  begin
     id 23
     name lthumb
     direction 0.707107 -6.34905e-011 0.707107   
     length 0.820685   
     axis -90 45 2.85299e-015   XYZ
    dof rx rz
    limits (-45.0 45.0)
           (-45.0 45.0)
  end
  begin
     id 24 
     name rclavicle
     direction -0.858602 0.463947 -0.218075   
     length 3.35137  
     axis 0 0 0   XYZ 
    dof ry rz
    limits (-10.0 20.0)
           (-20.0 0.0)
  end
  begin
     id 25 
     name rhumerus
     direction -1 -4.48969e-011 -1.98511e-027  
     length 5.42351   
     axis 180 30 90   XYZ
    dof rx ry rz
    limits (-90.0 60.0)
           (-90.0 90.0)
           (-90.0 90.0)
  end
  begin
     id 26 
     name rradius
     direction -1 -4.48961e-011 -2.82624e-027   
     length 3.42066   
     axis 180 30 90   XYZ
    dof rx
    limits (-10.0 170.0)
  end
  begin
     id 27 
     name rwrist
     direction -1 -4.48966e-011 -3.80893e-027   
     length 1.71033   
     axis 1.1049e-015 -90 -90   XYZ
    dof ry
    limits (-180.0 0.0)
  end
  begin
     id 28
     name rhand
     direction -1 -4.48964e-011 -7.61786e-027   
     length 0.743608   
     axis 4.86085e-015 -90 -90   XYZ
    dof rx rz
    limits (-90.0 90.0)
           (-45.0 45.0)
  end
  begin
     id 29
     name rfingers
     direction -1 -4.48961e-011 -1.52357e-026   
     length 0.599516   
     axis 9.7217e-015 -90 -90   XYZ
    dof rx
    limits (0.0 90.0)
  end
  begin
     id 30
     name rthumb
     direction -0.707107 -6.34913e-011 0.707107   
     length 0.860789   
     axis -90 -45 -2.85299e-015   XYZ
    dof rx rz
    limits (-45.0 45.0)
           (-45.0 45.0)
  end
:hierarchy
  begin
    root lhipjoint rhipjoint lowerback
    lhipjoint lfemur
    lfemur ltibia
    ltibia lfoot
    lfoot ltoes
    rhipjoint rfemur
    rfemur rtibia
    rtibia rfoot
    rfoot rtoes
    lowerback upperback
    upperback thorax
    thorax lowerneck lclavicle rclavicle
    lowerneck upperneck
    upperneck head
    lclavicle lhumerus
    lhumerus lradius
    lradius lwrist
    lwrist lhand lthumb
    lhand lfingers
    rclavicle rhumerus
    rhumerus rradius
    rradius rwrist
    rwrist rhand rthumb
    rhand rfingers
  end

#!OML:ASF E:\mmandel\Project 1\Capture day 1\Session 2\Subject.ASF
:FULLY-SPECIFIED
:DEGREES
862
root 6.67221 15.3901 -4.79113 -42.0306 86.783 -421.766
lowerback 26.762 4.05798 -6.17482
upperback 3.78981 3.7675 -0.116404
thorax -10.9813 2.11125 2.05052
lowerneck -15.5419 -5.02778 -1.09366
upperneck -3.2071 -6.31298 2.49048
head 1.73494 -2.96863 0.594762
rclavicle -2.08724e-014 3.69739e-014
rhumerus -10.429 22.5914 -84.1591
rradius 61.7147
rwrist -15.2951
rhand -10.9457 30.131
rfingers 7.12502
rthumb 15.0728 0.699749
lclavicle -2.08724e-014 3.69739e-014
lhumerus -36.3827 -19.445 81.8885
lradius 50.7071
lwrist 30.7178
lhand -17.0141 -24.1271
lfingers 7.12502
lthumb 9.22169 5.65128
rfemur -46.3088 -12.7923 9.43214
rtibia 51.7846
rfoot -22.6082 -8.43583
rtoes -17.8217
lfemur -52.2112 9.13562 -17.0138
ltibia 56.0248
lfoot -21.0333 -9.28281
ltoes 6.31801
863
root 6.66158 15.3708 -4.81071 -46.5726 86.5312 -426.291
lowerback 26.9745 4.08082 -6.16416
upperback 3.74871 3.78416 -0.10083
thorax -11.141 2.12136 2.04417
lowerneck -15.7954 -5.01907 -1.18441
upperneck -2.95508 -6.2977 2.75195
head 1.87896 -2.94912 0.685481
rclavicle -8.98507e-014 1.63003e-014
rhumerus -10.5605 22.7716 -84.6338
rradius 62.0978
rwrist -14.4594
rhand -10.7495 30.3863
rfingers 7.12502
rthumb 15.2618 0.969348
lclavicle -8.98507e-014 1.63003e-014
lhumerus -35.6305 -19.3098 81.1412
lradius 50.917
lwrist 31.2928
lhand -17.7009 -24.4091
lfingers 7.12502
lthumb 8.55896 5.39739
rfemur -46.3555 -12.6253 9.61143
rtibia 51.8487
rfoot -22.7719 -8.22688
rtoes -17.4123
lfemur -52.4665 8.99782 -16.6381
ltibia 56.3766
lfoot -21.1722 -9.43917
ltoes 7.56152
864
root 6.66828 15.36 -4.83487 -47.4535 86.5054 -427.196
lowerback 26.7858 4.12827 -6.35555
upperback 3.78083 3.79663 -0.190964
thorax -11.0118 2.13108 2.05677
lowerneck -15.6656 -5.04389 -1.05977
upperneck -3.03682 -6.35542 2.87723
head 1.82973 -2.97664 0.704409
rclavicle -1.96797e-014 8.54774e-015
rhumerus -10.778 22.7836 -85.0592
rradius 62.556
rwrist -13.8604
rhand -10.2484 30.413
rfingers 7.12502
rthumb 15.7444 1.0334
lclavicle -1.96797e-014 8.54774e-015
lhumerus -34.8716 -19.3525 80.4309
lradius 51.2012
lwrist 31.8856
lhand -18.744 -24.5442
lfingers 7.12502
lthumb 7.55227 5.30096
rfemur -46.3089 -12.6737 9.4097
rtibia 51.802
rfoot -22.9978 -7.77157
rtoes -16.7284
lfemur -52.5972 8.86238 -16.6886
ltibia 56.6049
lfoot -21.4327 -9.38995
ltoes 7.88743
865
root 6.68322 15.3621 -4.86071 -48.2759 86.6004 -428.058
lowerback 26.4875 4.12572 -6.62293
upperback 3.82016 3.73566 -0.263052
thorax -10.8164 2.10926 2.16566
lowerneck -15.4277 -5.05566 -0.8921
upperneck -3.14145 -6.40074 2.85199
head 1.74569 -3.00532 0.671686
rclavicle -4.94974e-014 7.15625e-015
rhumerus -10.9258 22.7876 -85.4738
rradius 62.9944
rwrist -13.4421
rhand -9.32801 30.0082
rfingers 7.12502
rthumb 16.6307 0.700708
lclavicle -4.94974e-014 7.15625e-015
lhumerus -34.2427 -19.3512 79.8262
lradius 51.568
lwrist 32.4291
lhand -19.9766 -24.3407
lfingers 7.12502
lthumb 6.3624 5.54372
rfemur -46.1732 -12.8852 9.09712
rtibia 51.6435
rfoot -23.0765 -7.26384
rtoes -15.9433
lfemur -52.6106 8.69858 -16.8955
ltibia 56.7116
lfoot -21.6336 -9.25319
ltoes 7.47088
866
root 6.6917 15.3681 -4.88205 -51.1456 86.5665 -430.995
lowerback 26.3502 4.10509 -6.70142
upperback 3.78881 3.68864 -0.320847
thorax -10.7771 2.08887 2.16766
lowerneck -15.3741 -5.04647 -0.914601
upperneck -3.00133 -6.39933 3.05086
head 1.79287 -2.99987 0.73829
rclavicle -9.14409e-015 2.74323e-014
rhumerus -11.1411 22.7592 -85.9621
rradius 63.3839
rwrist -12.8502
rhand -8.80891 30.0564
rfingers 7.12502
rthumb 17.1304 0.791584
lclavicle -9.14409e-015 2.74323e-014
lhumerus -33.6017 -19.368 79.1653
lradius 51.8437
lwrist 32.9684
lhand -20.8533 -24.249
lfingers 7.12502
lthumb 5.51594 5.65922
rfemur -46.0769 -12.9933 9.02621
rtibia 51.3903
rfoot -23.0899 -7.19395
rtoes -15.8593
lfemur -52.6738 8.54827 -16.8782
ltibia 56.7696
lfoot -21.7123 -9.17878
ltoes 7.30012
867
root 6.69119 15.3714 -4.90264 -53.7459 86.36 -433.685
lowerback 26.2848 4.08192 -6.65489
upperback 3.76243 3.66804 -0.377275
thorax -10.7649 2.076 2.08727
lowerneck -15.6976 -5.04263 -1.00582
upperneck -2.5764 -6.40203 3.31469
head 2.00918 -2.9874 0.825614
rclavicle -1.59028e-015 -4.77083e-015
rhumerus -11.4199 22.7972 -86.4734
rradius 63.8018
rwrist -12.1449
rhand -8.60096 30.3432
rfingers 7.12502
rthumb 17.3305 1.09584
lclavicle -1.59028e-015 -4.77083e-015
lhumerus -32.7999 -19.214 78.3677
lradius 52.0307
lwrist 33.4454
lhand -21.4061 -24.2802
lfingers 7.12502
lthumb 4.98227 5.64121
rfemur -46.0987 -12.9474 9.13736
rtibia 51.0859
rfoot -22.9689 -7.51073
rtoes -16.6895
lfemur -52.8125 8.46047 -16.6845
ltibia 56.8288
lfoot -21.779 -8.99412
ltoes 6.96402
868
root 6.69239 15.3757 -4.92207 -56.1173 86.185 -436.036
lowerback 26.2794 4.05199 -6.68244
upperback 3.83821 3.63003 -0.377478
thorax -10.6728 2.05838 2.11938
lowerneck -16.0725 -5.06682 -0.957502
upperneck -2.28264 -6.45033 3.31211
head 2.17534 -3.00557 0.801315
rclavicle -9.14409e-015 5.76476e-014
rhumerus -11.4824 22.9652 -86.8325
rradius 64.0862
rwrist -11.6559
rhand -8.23671 30.3839
rfingers 7.12502
rthumb 17.6811 1.16777
lclavicle -9.14409e-015 5.76476e-014
lhumerus -31.8751 -18.8981 77.5936
lradius 52.1906
lwrist 33.7763
lhand -21.8428 -24.1484
lfingers 7.12502
lthumb 4.56053 5.78254
rfemur -45.9926 -12.8581 9.15748
rtibia 50.7569
rfoot -22.7563 -7.85155
rtoes -17.4073
lfemur -52.8074 8.31389 -16.4886
ltibia 56.8881
lfoot -21.9255 -8.71208
ltoes 6.40761
869
root 6.69432 15.3785 -4.93721 -58.9057 86.1374 -438.751
lowerback 26.3216 4.02323 -6.76369
upperback 3.92257 3.57423 -0.401582
thorax -10.5951 2.03478 2.1594
lowerneck -15.9743 -5.06537 -0.905373
upperneck -2.47597 -6.44917 3.34101
head 2.09074 -3.0053 0.806348
rclavicle -1.43125e-014 3.97569e-015
rhumerus -11.508 23.0721 -87.1868
rradius 64.2648
rwrist -11.3426
rhand -8.00217 30.3462
rfingers 7.12502
rthumb 17.9068 1.15061
lclavicle -1.43125e-014 3.97569e-015
lhumerus -30.9461 -18.8037 76.8747
lradius 52.2987
lwrist 34.1278
lhand -22.3325 -24.193
lfingers 7.12502
lthumb 4.08771 5.74755
rfemur -45.7647 -12.8244 9.02796
rtibia 50.4135
rfoot -22.7388 -7.9918
rtoes -17.3344
lfemur -52.7589 8.1145 -16.3921
ltibia 56.9555
lfoot -22.0466 -8.52806
ltoes 6.1072
870
root 6.69187 15.3761 -4.95055 -60.6079 86.0422 -440.476
lowerback 26.3747 4.02197 -6.82688
upperback 3.89069 3.5419 -0.463818
thorax -10.6555 2.02245 2.13312
lowerneck -15.819 -5.00119 -0.824733
upperneck -2.64977 -6.36948 3.31056
head 1.99778 -2.96901 0.793857
rclavicle -1.98785e-015 2.70347e-014
rhumerus -11.7671 23.0873 -87.6405
rradius 64.5034
rwrist -10.861
rhand -8.10046 30.5022
rfingers 7.12502
rthumb 17.8122 1.29795
lclavicle -1.98785e-015 2.70347e-014
lhumerus -30.1584 -18.9352 76.1927
lradius 52.4369
lwrist 34.5514
lhand -23.0414 -24.4064
lfingers 7.12502
lthumb 3.40308 5.54615
rfemur -45.6773 -12.7545 8.94828
rtibia 50.0685
rfoot -22.8306 -7.97004
rtoes -17.2392
lfemur -52.8593 8.04138 -16.3036
ltibia 57.0449
lfoot -22.0905 -8.4795
ltoes 5.96883
871
root 6.6903 15.3752 -4.9647 -61.1345 85.7907 -441.053
lowerback 26.4745 4.05655 -6.78887
upperback 3.81502 3.57812 -0.496132
thorax -10.7936 2.03919 2.05444
lowerneck -15.8583 -4.90812 -0.886535
upperneck -2.51933 -6.24328 3.39326
head 2.05283 -2.90195 0.83732
rclavicle -7.95139e-015 2.78299e-014
rhumerus -12.0787 23.1009 -88.0166
rradius 64.7727
rwrist -10.291
rhand -7.92526 30.6487
rfingers 7.12502
rthumb 17.9808 1.45985
lclavicle -7.95139e-015 2.78299e-014
lhumerus -29.4058 -19.0271 75.5655
lradius 52.5935
lwrist 34.8677
lhand -23.5354 -24.6103
lfingers 7.12502
lthumb 2.926 5.34936
rfemur -45.6482 -12.5126 8.97562
rtibia 49.7046
rfoot -22.9471 -8.00918
rtoes -17.3737
lfemur -52.9791 8.09695 -16.0955
ltibia 57.1437
lfoot -22.1469 -8.43384
ltoes 5.88212
872
root 6.69093 15.377 -4.98001 -60.9184 85.5914 -440.816
lowerback 26.5434 4.08913 -6.80285
upperback 3.84746 3.60988 -0.53369
thorax -10.7931 2.05369 2.00623
lowerneck -16.0584 -4.85501 -1.02718
upperneck -2.3287 -6.16242 3.6607
head 2.169 -2.84758 0.947356
rclavicle 1.07344e-014 2.66371e-014
rhumerus -12.2302 23.2112 -88.289
rradius 65.095
rwrist -9.96378
rhand -7.33861 30.4054
rfingers 7.12502
rthumb 18.5451 1.26945
lclavicle 1.07344e-014 2.66371e-014
lhumerus -28.5034 -19.0293 74.9082
lradius 52.7052
lwrist 35.2004
lhand -23.7106 -25.1538
lfingers 7.12502
lthumb 2.75687 4.80817
rfemur -45.5337 -12.2398 8.87196
rtibia 49.3345
rfoot -23.1104 -8.13192
rtoes -17.3604
lfemur -52.975 8.14506 -15.9615
ltibia 57.2258
lfoot -22.2389 -8.29283
ltoes 5.67554
873
root 6.69191 15.3766 -4.99134 -61.0568 85.5044 -440.886
lowerback 26.5589 4.10498 -6.92389
upperback 3.94783 3.60017 -0.586078
thorax -10.6875 2.05165 2.02224
lowerneck -16.2052 -4.86505 -0.91459
upperneck -2.36242 -6.19109 3.69858
head 2.18153 -2.85776 0.935589
rclavicle 4.01545e-014 6.75868e-015
rhumerus -12.3097 23.3084 -88.5771
rradius 65.3826
rwrist -9.76624
rhand -6.84988 30.0316
rfingers 7.12502
rthumb 19.0152 0.941085
lclavicle 4.01545e-014 6.75868e-015
lhumerus -27.5752 -19.0946 74.2231
lradius 52.8724
lwrist 35.5964
lhand -24.0357 -25.6533
lfingers 7.12502
lthumb 2.44288 4.31248
rfemur -45.344 -12.0401 8.67892
rtibia 48.9622
rfoot -23.0602 -8.31375
rtoes -18.0782
lfemur -52.914 8.09403 -15.8919
ltibia 57.2929
lfoot -22.313 -8.18387
ltoes 5.84622
874
root 6.69319 15.3768 -4.9988 -61.3051 85.4186 -441.104
lowerback 26.59 4.12962 -7.04487
upperback 3.97392 3.59261 -0.643122
thorax -10.6754 2.05186 2.02866
lowerneck -16.1453 -4.8329 -0.921335
upperneck -2.49642 -6.14332 3.82703
head 2.12962 -2.82979 0.984389
rclavicle 1.70955e-014 -9.93923e-015
rhumerus -12.4496 23.4063 -88.8649
rradius 65.4936
rwrist -9.56505
rhand -6.71867 29.9793
rfingers 7.12502
rthumb 19.1414 0.901261
lclavicle 1.70955e-014 -9.93923e-015
lhumerus -26.6923 -19.1759 73.5796
lradius 52.9689
lwrist 35.9057
lhand -24.4505 -25.5321
lfingers 7.12502
lthumb 2.0423 4.43791
rfemur -45.1858 -11.8296 8.51683
rtibia 48.5851
rfoot -22.9099 -8.46329
rtoes -18.9318
lfemur -52.9014 8.03556 -15.7976
ltibia 57.3454
lfoot -22.3373 -8.16359
ltoes 6.39092
875
root 6.69209 15.3767 -5.00525 -61.8643 85.3304 -441.696
lowerback 26.6978 4.12767 -7.13836
upperback 3.9092 3.54377 -0.691604
thorax -10.803 2.0346 2.03705
lowerneck -16.2157 -4.72477 -1.14234
upperneck -2.37045 -5.97448 4.11714
head 2.20248 -2.73203 1.12657
rclavicle -3.53837e-014 -1.59028e-014
rhumerus -12.7175 23.6377 -89.1225
rradius 65.5752
rwrist -9.35523
rhand -7.12236 30.4351
rfingers 7.12502
rthumb 18.7531 1.31902
lclavicle -3.53837e-014 -1.59028e-014
lhumerus -25.9005 -19.1819 72.9787
lradius 53.0778
lwrist 36.1938
lhand -24.7497 -25.1652
lfingers 7.12502
lthumb 1.75329 4.80736
rfemur -45.1252 -11.5963 8.34792
rtibia 48.2091
rfoot -22.8455 -8.55524
rtoes -19.1373
lfemur -52.976 7.98852 -15.6939
ltibia 57.3871
lfoot -22.3008 -8.17464
ltoes 6.6513
